# xmcd
#
# Track frame offsets:
#	150
#	21844
#	44664
#	61969
#
# Disc length: 1042 seconds
#
# Revision: 0
# Processed by: cddbd v1.5.2PL0 Copyright (c) Steve Scherf et al.
# Submitted via: audiograbber 1.83.01
#
DISCID=31041004
DTITLE=Dig In The Dirt - No Regrets
DYEAR=2007
DGENRE=Country
TTITLE0=No Regrets
TTITLE1=Learn To Love Again
TTITLE2=Unkindnest Cut Of All 
TTITLE3=Narcissus
EXTD=
EXTT0=
EXTT1=
EXTT2=
EXTT3=
PLAYORDER=
